<?xml version="1.0" standalone="no"?>
<!DOCTYPE svg PUBLIC "-//W3C//DTD SVG 20010904//EN"
 "http://www.w3.org/TR/2001/REC-SVG-20010904/DTD/svg10.dtd">
<svg version="1.0" xmlns="http://www.w3.org/2000/svg"
 width="128.000000pt" height="128.000000pt" viewBox="0 0 128.000000 128.000000"
 preserveAspectRatio="xMidYMid meet">

<g transform="translate(0.000000,128.000000) scale(0.100000,-0.100000)"
fill="#000000" stroke="none">
<path d="M82 1263 c-18 -9 -43 -30 -55 -47 -21 -30 -22 -40 -22 -231 0 -191 1
-201 22 -231 41 -57 71 -64 268 -64 197 0 227 7 268 64 21 30 22 40 22 231 0
191 -1 201 -22 231 -41 57 -71 64 -270 64 -143 0 -184 -4 -211 -17z m392 -99
c24 -23 24 -335 0 -358 -23 -24 -335 -24 -358 0 -24 23 -24 335 0 358 23 24
335 24 358 0z"/>
<path d="M768 1259 c-68 -35 -78 -71 -78 -274 0 -205 10 -239 80 -275 35 -18
59 -20 215 -20 156 0 180 2 215 20 70 36 80 70 80 275 0 205 -10 239 -80 275
-35 18 -58 20 -217 20 -157 -1 -182 -3 -215 -21z m394 -96 c16 -14 18 -34 18
-176 0 -135 -3 -163 -17 -179 -14 -16 -34 -18 -176 -18 -135 0 -163 3 -179 17
-16 14 -18 34 -18 176 0 135 3 163 17 179 14 16 34 18 176 18 135 0 163 -3
179 -17z"/>
<path d="M82 573 c-18 -9 -43 -30 -55 -47 -21 -30 -22 -40 -22 -231 0 -191 1
-201 22 -231 41 -57 71 -64 268 -64 197 0 227 7 268 64 21 30 22 40 22 231 0
191 -1 201 -22 231 -41 57 -71 64 -270 64 -143 0 -184 -4 -211 -17z m392 -99
c24 -23 24 -335 0 -358 -23 -24 -335 -24 -358 0 -24 23 -24 335 0 358 23 24
335 24 358 0z"/>
<path d="M768 569 c-68 -35 -78 -71 -78 -274 0 -205 10 -239 80 -275 35 -18
59 -20 215 -20 156 0 180 2 215 20 70 36 80 70 80 275 0 205 -10 239 -80 275
-35 18 -58 20 -217 20 -157 -1 -182 -3 -215 -21z m394 -96 c16 -14 18 -34 18
-176 0 -135 -3 -163 -17 -179 -14 -16 -34 -18 -176 -18 -135 0 -163 3 -179 17
-16 14 -18 34 -18 176 0 135 3 163 17 179 14 16 34 18 176 18 135 0 163 -3
179 -17z"/>
</g>
</svg>
